<?xml version="1.0" standalone="no"?>
<!DOCTYPE svg PUBLIC "-//W3C//DTD SVG 20010904//EN"
 "http://www.w3.org/TR/2001/REC-SVG-20010904/DTD/svg10.dtd">
<svg version="1.0" xmlns="http://www.w3.org/2000/svg"
 width="100.000000pt" height="100.000000pt" viewBox="0 0 100.000000 100.000000"
 preserveAspectRatio="xMidYMid meet">

<g transform="translate(0.000000,100.000000) scale(0.100000,-0.100000)"
fill="#000000" stroke="none">
<path d="M20 844 c0 -9 12 -32 26 -51 28 -37 25 -55 -6 -35 -29 18 -26 -6 5
-52 30 -45 32 -61 6 -46 -11 5 -22 10 -25 10 -13 0 -4 -28 19 -60 33 -45 32
-54 -5 -35 l-30 15 11 -27 c15 -40 67 -91 119 -118 71 -36 163 -110 255 -203
47 -47 85 -83 85 -80 0 4 -11 47 -24 97 l-24 90 -110 108 c-116 113 -199 228
-230 315 -18 53 -72 107 -72 72z"/>
<path d="M959 837 c-14 -12 -31 -41 -38 -63 -24 -86 -158 -264 -272 -361 l-64
-53 -25 -99 -26 -99 111 106 c77 74 141 124 205 162 90 53 150 112 150 148 0
12 -4 12 -26 -3 -36 -23 -41 -12 -11 27 13 18 28 43 32 56 7 23 7 23 -24 7
-17 -8 -31 -13 -31 -11 0 3 14 27 30 53 35 55 37 68 11 53 -38 -20 -40 -10
-11 37 43 67 38 83 -11 40z"/>
<path d="M140 770 c0 -43 104 -191 203 -289 l76 -74 -29 112 c-15 62 -30 114
-32 115 -38 32 -218 143 -218 136z"/>
<path d="M765 707 l-110 -74 -26 -106 -26 -106 33 25 c40 31 135 141 180 209
29 44 69 125 62 125 -2 0 -53 -33 -113 -73z"/>
<path d="M157 358 c16 -28 162 -138 236 -179 35 -19 1 26 -60 81 -59 53 -168
130 -185 130 -6 0 -1 -15 9 -32z"/>
<path d="M784 341 c-62 -44 -211 -186 -174 -166 8 5 61 39 116 76 93 62 144
108 144 130 0 17 -17 9 -86 -40z"/>
</g>
</svg>
