<?xml version="1.0" standalone="no"?>
<!DOCTYPE svg PUBLIC "-//W3C//DTD SVG 20010904//EN"
 "http://www.w3.org/TR/2001/REC-SVG-20010904/DTD/svg10.dtd">
<svg version="1.0" xmlns="http://www.w3.org/2000/svg"
 width="264.000000pt" height="145.000000pt" viewBox="0 0 264.000000 145.000000"
 preserveAspectRatio="xMidYMid meet">

<g transform="translate(0.000000,145.000000) scale(0.100000,-0.100000)"
fill="#000000" stroke="none">
<path d="M420 1414 c0 -9 12 -32 26 -51 28 -37 25 -55 -6 -35 -29 18 -26 -6 5
-52 30 -45 32 -61 6 -46 -11 5 -22 10 -25 10 -13 0 -4 -28 19 -60 33 -45 32
-54 -5 -35 l-30 15 11 -27 c15 -40 67 -91 119 -118 71 -36 163 -110 255 -203
47 -47 85 -83 85 -80 0 4 -11 47 -24 97 l-24 90 -110 108 c-116 113 -199 228
-230 315 -18 53 -72 107 -72 72z"/>
<path d="M1359 1407 c-14 -12 -31 -41 -38 -63 -24 -86 -158 -264 -272 -361
l-64 -53 -25 -99 -26 -99 111 106 c77 74 141 124 205 162 90 53 150 112 150
148 0 12 -4 12 -26 -3 -36 -23 -41 -12 -11 27 13 18 28 43 32 56 7 23 7 23
-24 7 -17 -8 -31 -13 -31 -11 0 3 14 27 30 53 35 55 37 68 11 53 -38 -20 -40
-10 -11 37 43 67 38 83 -11 40z"/>
<path d="M540 1340 c0 -43 104 -191 203 -289 l76 -74 -29 112 c-15 62 -30 114
-32 115 -38 32 -218 143 -218 136z"/>
<path d="M1165 1277 l-110 -74 -26 -106 -26 -106 33 25 c40 31 135 141 180
209 29 44 69 125 62 125 -2 0 -53 -33 -113 -73z"/>
<path d="M557 928 c16 -28 162 -138 236 -179 35 -19 1 26 -60 81 -59 53 -168
130 -185 130 -6 0 -1 -15 9 -32z"/>
<path d="M1184 911 c-62 -44 -211 -186 -174 -166 8 5 61 39 116 76 93 62 144
108 144 130 0 17 -17 9 -86 -40z"/>
<path d="M113 275 c110 -265 111 -266 139 -263 27 3 33 12 77 112 44 101 70
138 72 104 0 -7 13 -40 28 -73 l28 -60 16 32 c16 31 16 34 -13 102 -17 38 -30
78 -30 88 0 11 18 59 40 108 48 108 49 117 13 113 -24 -3 -35 -21 -124 -216
-53 -117 -100 -214 -105 -215 -4 -1 -47 95 -94 213 l-86 215 -36 3 -36 3 111
-266z"/>
<path d="M260 528 c1 -7 16 -42 35 -78 l33 -65 11 28 c14 36 14 33 -5 84 -14
37 -21 43 -45 43 -17 0 -29 -5 -29 -12z"/>
<path d="M691 518 c-105 -266 -167 -420 -182 -450 -26 -51 -24 -60 12 -56 30
3 33 8 120 218 50 118 99 236 110 263 l19 47 -35 0 c-28 0 -38 -5 -44 -22z"/>
<path d="M872 278 l3 -263 33 -3 32 -3 0 265 0 266 -35 0 -35 0 2 -262z"/>
<path d="M1100 520 c0 -10 88 -130 196 -265 176 -220 199 -246 223 -243 l26 3
3 263 2 262 -35 0 -35 0 -2 -202 -3 -203 -160 202 c-138 174 -164 202 -187
203 -21 0 -28 -5 -28 -20z"/>
<path d="M1813 515 c-143 -72 -183 -266 -83 -403 45 -63 100 -95 171 -100 80
-6 119 11 119 50 0 25 -3 29 -17 22 -26 -11 -100 -17 -128 -10 -40 10 -102 73
-121 121 -11 30 -15 62 -12 97 9 111 68 178 164 186 64 5 105 -9 139 -49 28
-34 36 -35 58 -11 15 16 14 20 -9 50 -60 76 -182 96 -281 47z"/>
<path d="M2345 526 c-64 -28 -106 -109 -91 -172 12 -45 49 -71 142 -99 49 -14
104 -32 122 -40 59 -27 65 -102 11 -130 -57 -30 -192 -12 -240 31 -20 18 -21
18 -40 -6 -19 -25 -19 -25 9 -47 42 -35 108 -53 191 -53 128 0 186 46 186 147
0 51 -3 58 -38 88 -27 23 -61 39 -125 55 -48 13 -99 29 -114 37 -52 25 -47
106 8 132 42 21 124 17 175 -9 41 -21 43 -22 56 -4 19 26 13 36 -37 62 -51 26
-165 30 -215 8z"/>
<path d="M1100 197 l0 -188 33 3 32 3 3 146 3 145 -35 40 -35 39 -1 -188z"/>
<path d="M1970 245 c0 -24 3 -25 55 -25 l55 0 0 -106 0 -105 28 3 27 3 3 128
3 127 -86 0 c-84 0 -85 0 -85 -25z"/>
</g>
</svg>
